<svg id="svg" version="1.1" xmlns="http://www.w3.org/2000/svg" xmlns:xlink="http://www.w3.org/1999/xlink" width="400" height="400" viewBox="0, 0, 400,400"><g id="svgg"><path id="path0" d="M0.000 200.000 L 0.000 400.000 33.333 400.000 L 66.667 400.000 66.667 374.933 L 66.667 349.867 75.067 349.867 L 83.467 349.867 83.467 341.600 L 83.467 333.333 116.800 333.333 L 150.133 333.333 150.133 308.267 L 150.133 283.200 141.733 283.200 L 133.333 283.200 133.333 258.267 L 133.333 233.333 125.067 233.333 L 116.800 233.333 116.800 224.933 L 116.800 216.533 108.400 216.533 L 100.000 216.533 100.000 200.000 L 100.000 183.467 108.400 183.467 L 116.800 183.467 116.800 166.800 L 116.800 150.133 108.400 150.133 L 100.000 150.133 100.000 141.733 L 100.000 133.333 108.400 133.333 L 116.800 133.333 116.800 116.667 L 116.800 100.000 133.467 100.000 L 150.133 100.000 150.133 91.733 L 150.133 83.467 200.000 83.467 L 249.867 83.467 249.867 91.733 L 249.867 100.000 266.533 100.000 L 283.200 100.000 283.200 108.400 L 283.200 116.800 291.600 116.800 L 300.000 116.800 300.000 175.067 L 300.000 233.333 316.667 233.333 L 333.333 233.333 333.333 250.000 L 333.333 266.667 308.267 266.667 L 283.200 266.667 283.200 274.933 L 283.200 283.200 274.933 283.200 L 266.667 283.200 266.667 291.600 L 266.667 300.000 258.267 300.000 L 249.867 300.000 249.867 308.267 L 249.867 316.533 241.600 316.533 L 233.333 316.533 233.333 324.933 L 233.333 333.333 266.667 333.333 L 300.000 333.333 300.000 341.600 L 300.000 349.867 308.267 349.867 L 316.533 349.867 316.533 358.267 L 316.533 366.667 324.933 366.667 L 333.333 366.667 333.333 383.333 L 333.333 400.000 366.667 400.000 L 400.000 400.000 400.000 200.000 L 400.000 0.000 200.000 0.000 L 0.000 0.000 0.000 200.000 M100.000 125.067 L 100.000 133.333 91.733 133.333 L 83.467 133.333 83.467 125.067 L 83.467 116.800 91.733 116.800 L 100.000 116.800 100.000 125.067 " stroke="none" fill="#fcfcdc" fill-rule="evenodd"></path><path id="path1" d="M150.133 108.400 L 150.133 116.800 200.000 116.800 L 249.867 116.800 249.867 108.400 L 249.867 100.000 200.000 100.000 L 150.133 100.000 150.133 108.400 M133.333 175.067 L 133.333 183.467 208.267 183.467 L 283.200 183.467 283.200 175.067 L 283.200 166.667 208.267 166.667 L 133.333 166.667 133.333 175.067 M116.800 208.267 L 116.800 216.533 133.467 216.533 L 150.133 216.533 150.133 224.933 L 150.133 233.333 158.400 233.333 L 166.667 233.333 166.667 241.600 L 166.667 249.867 183.333 249.867 L 200.000 249.867 200.000 241.600 L 200.000 233.333 183.333 233.333 L 166.667 233.333 166.667 224.933 L 166.667 216.533 175.067 216.533 L 183.467 216.533 183.467 208.267 L 183.467 200.000 175.067 200.000 L 166.667 200.000 166.667 208.267 L 166.667 216.533 158.400 216.533 L 150.133 216.533 150.133 208.267 L 150.133 200.000 133.467 200.000 L 116.800 200.000 116.800 208.267 M200.000 208.267 L 200.000 216.533 208.267 216.533 L 216.533 216.533 216.533 224.933 L 216.533 233.333 224.933 233.333 L 233.333 233.333 233.333 224.933 L 233.333 216.533 241.600 216.533 L 249.867 216.533 249.867 208.267 L 249.867 200.000 241.600 200.000 L 233.333 200.000 233.333 208.267 L 233.333 216.533 224.933 216.533 L 216.533 216.533 216.533 208.267 L 216.533 200.000 208.267 200.000 L 200.000 200.000 200.000 208.267 M266.667 208.267 L 266.667 216.533 274.933 216.533 L 283.200 216.533 283.200 208.267 L 283.200 200.000 274.933 200.000 L 266.667 200.000 266.667 208.267 M266.667 241.600 L 266.667 249.867 274.933 249.867 L 283.200 249.867 283.200 241.600 L 283.200 233.333 274.933 233.333 L 266.667 233.333 266.667 241.600 M166.667 316.667 L 166.667 333.333 175.067 333.333 L 183.467 333.333 183.467 341.600 L 183.467 349.867 200.000 349.867 L 216.533 349.867 216.533 333.200 L 216.533 316.533 200.000 316.533 L 183.467 316.533 183.467 308.267 L 183.467 300.000 175.067 300.000 L 166.667 300.000 166.667 316.667 M83.467 374.933 L 83.467 400.000 91.733 400.000 L 100.000 400.000 100.000 374.933 L 100.000 349.867 91.733 349.867 L 83.467 349.867 83.467 374.933 M183.467 383.333 L 183.467 400.000 200.000 400.000 L 216.533 400.000 216.533 383.333 L 216.533 366.667 200.000 366.667 L 183.467 366.667 183.467 383.333 " stroke="none" fill="#4c3424" fill-rule="evenodd"></path><path id="path2" d="M83.467 125.067 L 83.467 133.333 91.733 133.333 L 100.000 133.333 100.000 141.733 L 100.000 150.133 108.400 150.133 L 116.800 150.133 116.800 158.400 L 116.800 166.667 208.400 166.667 L 300.000 166.667 300.000 141.733 L 300.000 116.800 208.400 116.800 L 116.800 116.800 116.800 125.067 L 116.800 133.333 108.400 133.333 L 100.000 133.333 100.000 125.067 L 100.000 116.800 91.733 116.800 L 83.467 116.800 83.467 125.067 M300.000 241.600 L 300.000 249.867 266.667 249.867 L 233.333 249.867 233.333 258.267 L 233.333 266.667 283.333 266.667 L 333.333 266.667 333.333 250.000 L 333.333 233.333 316.667 233.333 L 300.000 233.333 300.000 241.600 " stroke="none" fill="#bd2e25" fill-rule="evenodd"></path><path id="path3" d="M150.133 91.733 L 150.133 100.000 133.467 100.000 L 116.800 100.000 116.800 108.400 L 116.800 116.800 133.467 116.800 L 150.133 116.800 150.133 108.400 L 150.133 100.000 200.000 100.000 L 249.867 100.000 249.867 108.400 L 249.867 116.800 266.533 116.800 L 283.200 116.800 283.200 108.400 L 283.200 100.000 266.533 100.000 L 249.867 100.000 249.867 91.733 L 249.867 83.467 200.000 83.467 L 150.133 83.467 150.133 91.733 M116.800 175.067 L 116.800 183.467 125.067 183.467 L 133.333 183.467 133.333 175.067 L 133.333 166.667 125.067 166.667 L 116.800 166.667 116.800 175.067 M283.200 175.067 L 283.200 183.467 291.600 183.467 L 300.000 183.467 300.000 175.067 L 300.000 166.667 291.600 166.667 L 283.200 166.667 283.200 175.067 M100.000 208.267 L 100.000 216.533 108.400 216.533 L 116.800 216.533 116.800 224.933 L 116.800 233.333 125.067 233.333 L 133.333 233.333 133.333 258.267 L 133.333 283.200 141.733 283.200 L 150.133 283.200 150.133 308.267 L 150.133 333.333 116.800 333.333 L 83.467 333.333 83.467 341.600 L 83.467 349.867 75.067 349.867 L 66.667 349.867 66.667 374.933 L 66.667 400.000 75.067 400.000 L 83.467 400.000 83.467 374.933 L 83.467 349.867 125.067 349.867 L 166.667 349.867 166.667 374.933 L 166.667 400.000 175.067 400.000 L 183.467 400.000 183.467 383.333 L 183.467 366.667 200.000 366.667 L 216.533 366.667 216.533 383.333 L 216.533 400.000 224.933 400.000 L 233.333 400.000 233.333 374.933 L 233.333 349.867 266.667 349.867 L 300.000 349.867 300.000 358.267 L 300.000 366.667 308.267 366.667 L 316.533 366.667 316.533 383.333 L 316.533 400.000 324.933 400.000 L 333.333 400.000 333.333 383.333 L 333.333 366.667 324.933 366.667 L 316.533 366.667 316.533 358.267 L 316.533 349.867 308.267 349.867 L 300.000 349.867 300.000 341.600 L 300.000 333.333 266.667 333.333 L 233.333 333.333 233.333 324.933 L 233.333 316.533 241.600 316.533 L 249.867 316.533 249.867 308.267 L 249.867 300.000 258.267 300.000 L 266.667 300.000 266.667 291.600 L 266.667 283.200 274.933 283.200 L 283.200 283.200 283.200 274.933 L 283.200 266.667 258.267 266.667 L 233.333 266.667 233.333 258.267 L 233.333 249.867 250.000 249.867 L 266.667 249.867 266.667 241.600 L 266.667 233.333 233.333 233.333 L 200.000 233.333 200.000 241.600 L 200.000 249.867 183.333 249.867 L 166.667 249.867 166.667 241.600 L 166.667 233.333 158.400 233.333 L 150.133 233.333 150.133 224.933 L 150.133 216.533 133.467 216.533 L 116.800 216.533 116.800 208.267 L 116.800 200.000 108.400 200.000 L 100.000 200.000 100.000 208.267 M183.467 208.267 L 183.467 216.533 191.733 216.533 L 200.000 216.533 200.000 208.267 L 200.000 200.000 191.733 200.000 L 183.467 200.000 183.467 208.267 M249.867 208.267 L 249.867 216.533 258.267 216.533 L 266.667 216.533 266.667 208.267 L 266.667 200.000 258.267 200.000 L 249.867 200.000 249.867 208.267 M283.200 233.200 L 283.200 249.867 291.600 249.867 L 300.000 249.867 300.000 233.200 L 300.000 216.533 291.600 216.533 L 283.200 216.533 283.200 233.200 M183.467 308.267 L 183.467 316.533 200.000 316.533 L 216.533 316.533 216.533 333.200 L 216.533 349.867 200.000 349.867 L 183.467 349.867 183.467 341.600 L 183.467 333.333 175.067 333.333 L 166.667 333.333 166.667 316.667 L 166.667 300.000 175.067 300.000 L 183.467 300.000 183.467 308.267 " stroke="none" fill="#110d0a" fill-rule="evenodd"></path><path id="path4" d="M100.000 191.733 L 100.000 200.000 125.067 200.000 L 150.133 200.000 150.133 208.267 L 150.133 216.533 158.400 216.533 L 166.667 216.533 166.667 224.933 L 166.667 233.333 191.600 233.333 L 216.533 233.333 216.533 224.933 L 216.533 216.533 224.933 216.533 L 233.333 216.533 233.333 224.933 L 233.333 233.333 258.267 233.333 L 283.200 233.333 283.200 224.933 L 283.200 216.533 291.600 216.533 L 300.000 216.533 300.000 200.000 L 300.000 183.467 200.000 183.467 L 100.000 183.467 100.000 191.733 M216.533 208.267 L 216.533 216.533 191.600 216.533 L 166.667 216.533 166.667 208.267 L 166.667 200.000 191.600 200.000 L 216.533 200.000 216.533 208.267 M283.200 208.267 L 283.200 216.533 258.267 216.533 L 233.333 216.533 233.333 208.267 L 233.333 200.000 258.267 200.000 L 283.200 200.000 283.200 208.267 M100.000 374.933 L 100.000 400.000 133.333 400.000 L 166.667 400.000 166.667 374.933 L 166.667 349.867 133.333 349.867 L 100.000 349.867 100.000 374.933 M233.333 374.933 L 233.333 400.000 274.933 400.000 L 316.533 400.000 316.533 383.333 L 316.533 366.667 308.267 366.667 L 300.000 366.667 300.000 358.267 L 300.000 349.867 266.667 349.867 L 233.333 349.867 233.333 374.933 " stroke="none" fill="#a59639" fill-rule="evenodd"></path></g></svg>